Coordinates
version=1
nRows=14
nColumns=36
inDegrees=yes

Units are S.I. units (second, meters, Newtons, ...)
If the header above contains a line with 'inDegrees', this indicates whether rotational values are in degrees (yes) or radians (no).

endheader
time	pelvis_tilt	pelvis_list	pelvis_rotation	pelvis_tx	pelvis_ty	pelvis_tz	hip_flexion_r	hip_adduction_r	hip_rotation_r	knee_angle_r	knee_angle_r_beta	ankle_angle_r	subtalar_angle_r	mtp_angle_r	hip_flexion_l	hip_adduction_l	hip_rotation_l	knee_angle_l	knee_angle_l_beta	ankle_angle_l	subtalar_angle_l	mtp_angle_l	lumbar_extension	lumbar_bending	lumbar_rotation	arm_flex_r	arm_add_r	arm_rot_r	elbow_flex_r	pro_sup_r	arm_flex_l	arm_add_l	arm_rot_l	elbow_flex_l	pro_sup_l
      3.70000000	     -2.38302585	      3.80113063	     -7.97732168	      1.58469411	      0.95663785	     -0.61565368	     17.42157075	     -3.95159898	      0.61800197	     30.07055181	      0.52483014	      8.04698256	     -3.02982039	     -7.49999987	      9.66641020	     -1.16392818	     -4.05639409	     22.72327407	      0.39659595	      4.49373286	     -3.59439783	     -7.49999987	     -2.85408059	      3.50548089	      4.20650076	     -7.00273685	    -17.53693566	     10.84276974	     37.85513366	     70.97247367	     -9.26712192	    -15.01940931	     21.52030523	    107.34745439	     74.93000244
      3.71666670	     -2.21895538	      3.26510084	     -8.17887122	      1.58497240	      0.97339186	     -0.61578371	     14.94528841	     -3.21346774	      0.15588521	     25.62555828	      0.44725036	      5.53495489	     -3.07331159	     -7.49999987	      6.74197274	     -1.36209732	     -4.63550385	     17.45768978	      0.30469417	      2.81104729	     -2.02355212	     -7.49999987	     -2.84928306	      3.97052949	      4.08971307	     -7.01868793	    -18.08721706	     10.02938411	     38.45316406	     71.97624508	     -9.38789204	    -15.06294654	     21.09052936	    108.17284060	     76.49409730
      3.73333330	     -2.15418566	      2.84797416	     -8.16412041	      1.58557254	      0.98068532	     -0.61607167	     12.85593755	     -2.61779164	     -0.39202884	     21.84203229	      0.38121538	      3.69547310	     -2.79211740	     -7.49999987	      4.61139810	     -1.48269031	     -4.82343694	     13.45622102	      0.23485536	      1.17667151	     -0.81831153	     -7.49999987	     -2.73222840	      4.29672451	      4.27144418	     -7.55687375	    -18.80178145	      9.91425174	     39.53555844	     72.34324762	    -10.00758659	    -14.88115413	     21.05836522	    110.36502957	     77.15137794
      3.75000000	     -2.07194893	      2.62213702	     -8.25471439	      1.58522541	      0.98066664	     -0.61629648	     11.48653119	     -2.24734228	     -1.06306317	     19.35603615	      0.33782656	      2.63253227	     -2.70119320	     -7.49999987	      3.15721341	     -1.48996091	     -5.13585828	     10.81177549	      0.18870108	      0.37075392	      0.30114642	     -7.49999987	     -2.76232268	      4.39676967	      4.17883755	     -8.07277185	    -19.35612620	      9.55709383	     41.82717328	     72.93138050	    -10.30319787	    -14.70633268	     20.44329639	    113.49611777	     78.27972687
      3.76666670	     -2.02239618	      2.43040471	     -8.30726753	      1.58262224	      0.98544670	     -0.60921518	     10.27422008	     -1.79933810	     -1.57337910	     17.10416448	      0.29852399	      1.86306766	     -2.62153025	     -7.49999987	      2.18182399	     -1.61889884	     -5.20492027	      8.96886518	      0.15653623	     -0.24177353	      0.94771339	     -7.49999987	     -2.85063944	      4.28944399	      4.24906147	     -7.84821808	    -19.36137953	      9.20718246	     43.56410107	     73.25247515	    -10.14302741	    -15.40446583	     19.94712993	    115.24444156	     78.94461720
      3.78333330	     -1.97660563	      2.35623931	     -8.34294733	      1.58221596	      0.98516810	     -0.60960852	      9.33314010	     -1.49653045	     -1.90755562	     15.40001571	      0.26878098	      1.25973896	     -2.65970267	     -7.49999987	      1.59251014	     -1.65498449	     -5.32768976	      7.83141352	      0.13668395	     -0.58381741	      1.37031249	     -7.49999987	     -2.86129110	      4.07303418	      4.13898368	     -8.02977403	    -19.47467786	      8.63984155	     45.19924427	     73.30825494	     -9.82212894	    -16.19023163	     19.64955336	    116.39879397	     79.28510391
      3.80000000	     -2.07849219	      2.33732683	     -8.48887621	      1.58238743	      0.98280251	     -0.60944993	      8.65271136	     -1.20168126	     -2.07936934	     13.98126695	      0.24401914	      0.98406998	     -2.80054779	     -7.49999987	      1.24764874	     -1.66063247	     -5.33735269	      6.99887929	      0.12215349	     -0.77292532	      1.53867299	     -7.49999987	     -2.79419671	      3.91040784	      4.98188286	     -9.84207320	    -19.35407811	      4.97886041	     48.37881848	     77.03301382	     -6.95004009	    -18.01321625	     21.31924427	    117.36364543	     83.96015306
      3.81666670	     -2.18825376	      2.43746796	     -8.73650664	      1.58211690	      0.97713614	     -0.60948967	      8.22499210	     -1.09730469	     -1.98310527	     13.02119642	      0.22726275	      1.05936249	     -3.10861930	     -7.49999987	      1.16447042	     -1.57648356	     -5.55388995	      6.66455607	      0.11631845	     -0.43375910	      1.77101925	     -7.49999987	     -2.60325208	      3.62665906	      4.63607828	    -10.17375267	    -19.95989021	      4.81877527	     50.94499783	     76.52811303	     -5.45667721	    -19.33299089	     22.05594817	    119.30212711	     83.33080045
      3.83333330	     -2.35796460	      2.54765203	     -8.88190733	      1.57669545	      0.97203889	     -0.60562082	      8.11679636	     -0.97910243	     -2.07766058	     12.41766288	      0.21672910	      1.38218893	     -3.34870699	     -7.49999987	      1.47700010	     -1.56902549	     -5.49151219	      6.76778070	      0.11812006	      0.07190054	      1.60814220	     -7.49999987	     -2.54265111	      3.34411765	      4.34140642	    -10.16420256	    -20.68518702	      5.08329754	     54.33857280	     76.92242616	     -4.32648122	    -20.77299916	     22.49513482	    120.40695209	     83.46726614
      3.85000000	     -2.40551488	      2.64017824	     -9.12715726	      1.57061596	      0.96624984	     -0.60264987	      8.16887055	     -0.80645157	     -2.03047703	     12.27315808	      0.21420702	      1.79153842	     -3.79433434	     -7.49999987	      1.93019718	     -1.62898487	     -5.64520737	      7.30171048	      0.12743889	      0.96811846	      1.34708821	     -7.49999987	     -2.72958624	      3.03906843	      4.46003864	     -9.64412189	    -21.35478893	      4.98110216	     57.66472786	     77.43616696	     -2.98986012	    -22.04603534	     22.99466653	    120.52621078	     83.40613668
      3.86666670	     -2.59064362	      2.84087048	     -9.28520153	      1.56809965	      0.95968771	     -0.60611118	      8.61661709	     -0.81084458	     -1.91335996	     12.46486984	      0.21755302	      2.39519536	     -4.20809097	     -7.49999987	      2.65487812	     -1.54373485	     -5.61461988	      8.03834534	      0.14029559	      1.94633445	      1.07457348	     -7.49999987	     -2.84322011	      2.79399623	      5.43191039	    -10.11539014	    -21.71579258	      2.42270753	     61.21690094	     80.59225395	     -0.93961082	    -23.17089717	     24.99673010	    119.99336563	     83.02706254
      3.88333330	     -2.70221825	      3.04860449	     -9.45979488	      1.56205584	      0.95508643	     -0.60300193	      9.18887796	     -0.83889510	     -1.81131686	     12.95663606	      0.22613596	      3.00119704	     -4.60531838	     -7.49999987	      3.56236272	     -1.50188480	     -5.41996558	      9.10601441	      0.15892993	      3.15325713	      0.52199494	     -7.49999987	     -3.24606769	      2.38066389	      5.74443367	     -8.93894693	    -22.07379523	      2.36983516	     62.83721969	     79.19933110	     -1.89849618	    -22.40964100	     24.42839572	    118.37003304	     80.76803736
      3.90000000	     -2.84042545	      3.31018947	     -9.59709667	      1.56246354	      0.94895292	     -0.60251409	      9.85412041	     -0.95956819	     -1.75314911	     13.65795185	      0.23837623	      3.64009030	     -4.97803443	     -7.49999987	      4.42358667	     -1.35515604	     -5.56591827	     10.21648063	      0.17831123	      4.50606212	      0.32511542	     -7.49999987	     -3.50262432	      1.95813054	      5.65519611	     -7.98804791	    -22.02154677	      2.14455898	     63.48304701	     78.86496467	     -3.24118323	    -21.18781017	     23.35637754	    116.54399223	     79.85335345
      3.91666670	     -2.99005616	      3.47120513	     -9.69390065	      1.56255109	      0.94760864	     -0.60314359	     10.52289496	     -1.01456135	     -1.65570723	     14.42964832	      0.25184487	      4.14208107	     -5.53056375	     -7.49999987	      5.21616536	     -1.27977662	     -5.76545966	     11.31197368	      0.19743119	      5.74690846	      0.20519781	     -7.49999987	     -3.70568504	      1.69960169	      4.88984847	     -6.85798830	    -21.77974544	      2.30654598	     62.57816089	     80.17749506	     -4.81729371	    -19.59041956	     21.49858517	    114.62368345	     80.31055461
